<svg width="23" height="26" viewBox="0 0 23 26" fill="none" xmlns="http://www.w3.org/2000/svg">
<path d="M9.15625 0.588379C7.86183 0.588379 6.8125 1.63899 6.8125 2.93498V4.49938C6.8125 5.79537 7.86183 6.84598 9.15625 6.84598H13.8438C15.1382 6.84598 16.1875 5.79537 16.1875 4.49938V2.93498C16.1875 1.63899 15.1382 0.588379 13.8438 0.588379H9.15625ZM13.8438 2.15278C14.2752 2.15278 14.625 2.50298 14.625 2.93498V4.49938C14.625 4.93138 14.2752 5.28158 13.8438 5.28158H9.15625C8.72478 5.28158 8.375 4.93138 8.375 4.49938V2.93498C8.375 2.50298 8.72478 2.15278 9.15625 2.15278H13.8438Z" fill="black"/>
<path d="M5.25 2.93498H3.6875C1.96161 2.93498 0.5625 4.33579 0.5625 6.06378V22.49C0.5625 24.218 1.96161 25.6188 3.6875 25.6188H19.3125C21.0384 25.6188 22.4375 24.218 22.4375 22.49V6.06378C22.4375 4.33579 21.0384 2.93498 19.3125 2.93498H17.75V4.49938C17.75 6.65936 16.0011 8.41038 13.8438 8.41038H9.15625C6.99889 8.41038 5.25 6.65936 5.25 4.49938V2.93498ZM14.5921 10.5322L16.7688 17.7968H16.9688C17.4002 17.7968 17.75 18.147 17.75 18.579C17.75 19.011 17.4002 19.3612 16.9688 19.3612H16.1875C15.8425 19.3612 15.5383 19.1346 15.4392 18.8037L13.97 13.9004L12.2639 21.8717C12.1892 22.2208 11.8878 22.475 11.5314 22.4893C11.175 22.5037 10.8542 22.2746 10.7517 21.9325L8.97402 15.9997L7.51127 18.9288C7.37893 19.1938 7.10842 19.3612 6.8125 19.3612H6.03125C5.59978 19.3612 5.25 19.011 5.25 18.579C5.25 18.147 5.59978 17.7968 6.03125 17.7968H6.32966L8.45748 13.536C8.60072 13.2491 8.90432 13.0789 9.22343 13.1065C9.54254 13.134 9.81252 13.3538 9.90455 13.661L11.3738 18.5644L13.0798 10.5931C13.1546 10.2439 13.456 9.98975 13.8124 9.97541C14.1687 9.96106 14.4896 10.1902 14.5921 10.5322Z" fill="black"/>
</svg>
