<svg width="41" height="41" viewBox="0 0 41 41" fill="none" xmlns="http://www.w3.org/2000/svg">
<path fill-rule="evenodd" clip-rule="evenodd" d="M4.5 19.125C4.5 18.5283 4.73705 17.956 5.15901 17.534C5.58097 17.1121 6.15326 16.875 6.75 16.875H9C9.59674 16.875 10.169 17.1121 10.591 17.534C11.0129 17.956 11.25 18.5283 11.25 19.125V21.375C11.25 21.9717 11.0129 22.544 10.591 22.966C10.169 23.3879 9.59674 23.625 9 23.625H6.75C6.15326 23.625 5.58097 23.3879 5.15901 22.966C4.73705 22.544 4.5 21.9717 4.5 21.375V19.125ZM9 19.125V21.375H6.75V19.125H9ZM15.75 16.875C15.1533 16.875 14.581 17.1121 14.159 17.534C13.7371 17.956 13.5 18.5283 13.5 19.125V21.375C13.5 21.9717 13.7371 22.544 14.159 22.966C14.581 23.3879 15.1533 23.625 15.75 23.625H18C18.5967 23.625 19.169 23.3879 19.591 22.966C20.0129 22.544 20.25 21.9717 20.25 21.375V19.125C20.25 18.5283 20.0129 17.956 19.591 17.534C19.169 17.1121 18.5967 16.875 18 16.875H15.75ZM18 19.125H15.75V21.375H18V19.125ZM22.5 19.125C22.5 18.5283 22.7371 17.956 23.159 17.534C23.581 17.1121 24.1533 16.875 24.75 16.875H27C27.5967 16.875 28.169 17.1121 28.591 17.534C29.0129 17.956 29.25 18.5283 29.25 19.125V21.375C29.25 21.9717 29.0129 22.544 28.591 22.966C28.169 23.3879 27.5967 23.625 27 23.625H24.75C24.1533 23.625 23.581 23.3879 23.159 22.966C22.7371 22.544 22.5 21.9717 22.5 21.375V19.125ZM24.75 19.125H27V21.375H24.75V19.125ZM6.75 25.875C6.15326 25.875 5.58097 26.1121 5.15901 26.534C4.73705 26.956 4.5 27.5283 4.5 28.125V30.375C4.5 30.9717 4.73705 31.544 5.15901 31.966C5.58097 32.3879 6.15326 32.625 6.75 32.625H9C9.59674 32.625 10.169 32.3879 10.591 31.966C11.0129 31.544 11.25 30.9717 11.25 30.375V28.125C11.25 27.5283 11.0129 26.956 10.591 26.534C10.169 26.1121 9.59674 25.875 9 25.875H6.75ZM6.75 28.125V30.375H9V28.125H6.75ZM13.5 28.125C13.5 27.5283 13.7371 26.956 14.159 26.534C14.581 26.1121 15.1533 25.875 15.75 25.875H18C18.5967 25.875 19.169 26.1121 19.591 26.534C20.0129 26.956 20.25 27.5283 20.25 28.125V30.375C20.25 30.9717 20.0129 31.544 19.591 31.966C19.169 32.3879 18.5967 32.625 18 32.625H15.75C15.1533 32.625 14.581 32.3879 14.159 31.966C13.7371 31.544 13.5 30.9717 13.5 30.375V28.125ZM15.75 28.125H18V30.375H15.75V28.125Z" fill="white"/>
<path d="M32.625 28.6875C32.9234 28.6875 33.2095 28.806 33.4205 29.017C33.6315 29.228 33.75 29.5141 33.75 29.8125V32.1592L34.5454 32.9546C34.7503 33.1668 34.8637 33.451 34.8611 33.746C34.8586 34.0409 34.7403 34.3231 34.5317 34.5317C34.3231 34.7403 34.0409 34.8586 33.746 34.8611C33.451 34.8637 33.1668 34.7503 32.9546 34.5454L31.5 33.0908V29.8125C31.5 29.5141 31.6185 29.228 31.8295 29.017C32.0405 28.806 32.3266 28.6875 32.625 28.6875Z" fill="white"/>
<path fill-rule="evenodd" clip-rule="evenodd" d="M6.75 1.125C6.75 0.826631 6.86853 0.540484 7.0795 0.329505C7.29048 0.118527 7.57663 0 7.875 0C8.17337 0 8.45952 0.118527 8.6705 0.329505C8.88147 0.540484 9 0.826631 9 1.125V6.75C9 7.04837 8.88147 7.33452 8.6705 7.5455C8.45952 7.75647 8.17337 7.875 7.875 7.875C7.57663 7.875 7.29048 7.75647 7.0795 7.5455C6.86853 7.33452 6.75 7.04837 6.75 6.75V5.625H3.375C3.07663 5.625 2.79048 5.74353 2.5795 5.9545C2.36853 6.16548 2.25 6.45163 2.25 6.75V11.25H31.5V6.75C31.5 6.45163 31.3815 6.16548 31.1705 5.9545C30.9595 5.74353 30.6734 5.625 30.375 5.625H27V3.375H30.375C31.2701 3.375 32.1285 3.73058 32.7615 4.36351C33.3944 4.99645 33.75 5.85489 33.75 6.75V24.8288C35.7205 25.1136 37.51 26.1341 38.7585 27.6849C40.007 29.2358 40.6218 31.202 40.4792 33.1878C40.3367 35.1737 39.4473 37.0319 37.9901 38.3885C36.5329 39.7452 34.616 40.4996 32.625 40.5C31.3553 40.5008 30.1043 40.1943 28.9788 39.6066C27.8533 39.0189 26.8868 38.1674 26.1619 37.125H3.375C2.47989 37.125 1.62145 36.7694 0.988515 36.1365C0.355579 35.5035 0 34.6451 0 33.75V6.75C0 5.85489 0.355579 4.99645 0.988515 4.36351C1.62145 3.73058 2.47989 3.375 3.375 3.375H6.75V1.125ZM24.75 32.625C24.7497 30.7311 25.432 28.9004 26.6717 27.4686C27.9114 26.0367 29.6255 25.0995 31.5 24.8288V13.5H2.25V33.75C2.25 34.0484 2.36853 34.3345 2.5795 34.5455C2.79048 34.7565 3.07663 34.875 3.375 34.875H25.0763C24.8593 34.1447 24.7494 33.3868 24.75 32.625ZM32.625 38.25C34.1168 38.25 35.5476 37.6574 36.6025 36.6025C37.6574 35.5476 38.25 34.1168 38.25 32.625C38.25 31.1332 37.6574 29.7024 36.6025 28.6475C35.5476 27.5926 34.1168 27 32.625 27C31.1332 27 29.7024 27.5926 28.6475 28.6475C27.5926 29.7024 27 31.1332 27 32.625C27 34.1168 27.5926 35.5476 28.6475 36.6025C29.7024 37.6574 31.1332 38.25 32.625 38.25Z" fill="white"/>
<path d="M23.625 7.875C23.3266 7.875 23.0405 7.75647 22.8295 7.5455C22.6185 7.33452 22.5 7.04837 22.5 6.75V5.625H11.25V3.375H22.5V1.125C22.5 0.826631 22.6185 0.540484 22.8295 0.329505C23.0405 0.118527 23.3266 0 23.625 0C23.9234 0 24.2095 0.118527 24.4205 0.329505C24.6315 0.540484 24.75 0.826631 24.75 1.125V6.75C24.75 7.04837 24.6315 7.33452 24.4205 7.5455C24.2095 7.75647 23.9234 7.875 23.625 7.875Z" fill="white"/>
</svg>
