<svg width="42" height="42" viewBox="0 0 42 42" fill="none" xmlns="http://www.w3.org/2000/svg">
<path d="M21 2.66663L15.5 8.16663H8.16669V15.5L2.66669 21L8.16669 26.5V33.8333H15.5L21 39.3333L26.5 33.8333H33.8334V26.5L39.3334 21L33.8334 15.5V8.16663H26.5L21 2.66663Z" stroke="white" stroke-width="4" stroke-linejoin="round"/>
<path d="M21 26.5C22.4587 26.5 23.8576 25.9205 24.8891 24.8891C25.9205 23.8576 26.5 22.4587 26.5 21C26.5 19.5413 25.9205 18.1424 24.8891 17.1109C23.8576 16.0795 22.4587 15.5 21 15.5C19.5413 15.5 18.1424 16.0795 17.1109 17.1109C16.0795 18.1424 15.5 19.5413 15.5 21C15.5 22.4587 16.0795 23.8576 17.1109 24.8891C18.1424 25.9205 19.5413 26.5 21 26.5Z" stroke="white" stroke-width="4" stroke-linejoin="round"/>
</svg>
