<svg width="32" height="34" viewBox="0 0 32 34" fill="none" xmlns="http://www.w3.org/2000/svg">
<path d="M17.3088 0.918892L30.3713 11.5351C30.6459 11.7579 30.8673 12.0392 31.0193 12.3585C31.1713 12.6777 31.2501 13.0269 31.25 13.3805V31.25C31.25 31.8799 30.9998 32.484 30.5544 32.9294C30.109 33.3748 29.5049 33.625 28.875 33.625H2.75C2.12011 33.625 1.51602 33.3748 1.07062 32.9294C0.625222 32.484 0.375 31.8799 0.375 31.25V13.3805C0.37521 13.0273 0.4542 12.6786 0.606217 12.3598C0.758233 12.0409 0.979448 11.76 1.25375 11.5375L14.3162 0.918892C14.7394 0.575639 15.2677 0.388306 15.8125 0.388306C16.3573 0.388306 16.8856 0.575639 17.3088 0.918892ZM28.875 13.3805L15.8125 2.76189L2.75 13.3781V31.25H28.875V13.3805Z" fill="white"/>
</svg>
