<svg width="24" height="27" viewBox="0 0 24 27" fill="none" xmlns="http://www.w3.org/2000/svg">
<path d="M12 2.36362C9.243 2.36362 7 4.8615 7 7.9318V11.2727H6C5.46957 11.2727 4.96086 11.5074 4.58579 11.9251C4.21071 12.3428 4 12.9093 4 13.5V22.4091C4 22.9998 4.21071 23.5663 4.58579 23.984C4.96086 24.4017 5.46957 24.6363 6 24.6363H18C18.5304 24.6363 19.0391 24.4017 19.4142 23.984C19.7893 23.5663 20 22.9998 20 22.4091V13.5C20 12.9093 19.7893 12.3428 19.4142 11.9251C19.0391 11.5074 18.5304 11.2727 18 11.2727H17V7.9318C17 4.8615 14.757 2.36362 12 2.36362ZM9 7.9318C9 6.08984 10.346 4.59089 12 4.59089C13.654 4.59089 15 6.08984 15 7.9318V11.2727H9V7.9318ZM13 19.8733V22.4091H11V19.8733C10.6504 19.6504 10.3697 19.3146 10.1948 18.9104C10.02 18.5062 9.95928 18.0525 10.0207 17.609C10.0821 17.1656 10.2627 16.7533 10.5388 16.4265C10.8148 16.0997 11.1733 15.8738 11.567 15.7785C11.8594 15.7065 12.1626 15.7085 12.4542 15.7844C12.7459 15.8602 13.0185 16.0081 13.252 16.2169C13.4855 16.4257 13.6739 16.6903 13.8034 16.991C13.9328 17.2917 14 17.621 14 17.9545C13.9994 18.344 13.9067 18.7264 13.7311 19.0633C13.5556 19.4002 13.3034 19.6796 13 19.8733Z" fill="#3182B0"/>
</svg>
