<svg width="105" height="105" viewBox="0 0 105 105" fill="none" xmlns="http://www.w3.org/2000/svg">
<circle cx="52.5" cy="52.5" r="52.5" fill="white"/>
<path d="M31.7324 46V25.4267H33.6109V44.3123H43.4154V46H31.7324ZM63.7099 35.7134C63.7099 37.8564 63.3281 39.7215 62.5647 41.3087C61.8012 42.8892 60.7498 44.1148 59.4104 44.9854C58.0777 45.8493 56.5441 46.2813 54.8095 46.2813C53.075 46.2813 51.538 45.8493 50.1986 44.9854C48.8659 44.1148 47.8178 42.8892 47.0544 41.3087C46.2976 39.7215 45.9192 37.8564 45.9192 35.7134C45.9192 33.5703 46.2976 31.7085 47.0544 30.128C47.8178 28.5408 48.8693 27.3153 50.2087 26.4514C51.5481 25.5807 53.0817 25.1454 54.8095 25.1454C56.5441 25.1454 58.0777 25.5807 59.4104 26.4514C60.7498 27.3153 61.8012 28.5408 62.5647 30.128C63.3281 31.7085 63.7099 33.5703 63.7099 35.7134ZM61.8816 35.7134C61.8816 33.8717 61.5735 32.2945 60.9574 30.9819C60.3413 29.6626 59.5008 28.6547 58.436 27.9582C57.3711 27.2617 56.1623 26.9135 54.8095 26.9135C53.4634 26.9135 52.258 27.2617 51.1931 27.9582C50.1283 28.6547 49.2845 29.6592 48.6616 30.9719C48.0455 32.2845 47.7375 33.865 47.7375 35.7134C47.7375 37.555 48.0455 39.1322 48.6616 40.4448C49.2778 41.7574 50.1183 42.7653 51.1831 43.4685C52.2479 44.165 53.4567 44.5133 54.8095 44.5133C56.1623 44.5133 57.3711 44.165 58.436 43.4685C59.5075 42.772 60.3513 41.7675 60.9674 40.4549C61.5836 39.1355 61.8883 37.555 61.8816 35.7134ZM45.9669 65.8559C45.7794 65.1728 45.5048 64.5332 45.1432 63.9372C44.7816 63.3344 44.3329 62.8087 43.7971 62.36C43.268 61.9046 42.6552 61.5497 41.9588 61.2952C41.269 61.0407 40.4988 60.9135 39.6483 60.9135C38.3089 60.9135 37.1101 61.2617 36.052 61.9582C34.9938 62.6547 34.1567 63.6592 33.5406 64.9719C32.9312 66.2845 32.6264 67.865 32.6264 69.7134C32.6264 71.555 32.9345 73.1322 33.5506 74.4448C34.1668 75.7574 35.0106 76.7653 36.0821 77.4685C37.1603 78.165 38.3926 78.5133 39.7789 78.5133C41.0446 78.5133 42.163 78.232 43.1341 77.6694C44.1052 77.1069 44.8619 76.3032 45.4044 75.2585C45.9535 74.2138 46.2214 72.9715 46.208 71.5316L46.8108 71.7225H40.2209V70.0348H48.0363V71.7225C48.0363 73.4771 47.6814 74.994 46.9715 76.2731C46.2616 77.5522 45.2872 78.54 44.0482 79.2365C42.8093 79.933 41.3862 80.2813 39.7789 80.2813C37.9841 80.2813 36.4136 79.8493 35.0675 78.9854C33.7214 78.1148 32.6733 76.8892 31.9233 75.3087C31.1799 73.7215 30.8082 71.8564 30.8082 69.7134C30.8082 68.0994 31.0225 66.6428 31.4511 65.3435C31.8797 64.0443 32.4858 62.9326 33.2694 62.0084C34.0596 61.0842 34.9938 60.3777 36.0721 59.8888C37.1503 59.3932 38.3424 59.1454 39.6483 59.1454C40.7734 59.1454 41.8014 59.3229 42.7323 59.6779C43.6698 60.0328 44.4936 60.5217 45.2035 61.1445C45.9201 61.7606 46.506 62.4739 46.9614 63.2842C47.4235 64.0879 47.7349 64.9451 47.8957 65.8559H45.9669ZM69.5664 69.7134C69.5664 71.8564 69.1847 73.7215 68.4212 75.3087C67.6578 76.8892 66.6063 78.1148 65.2669 78.9854C63.9342 79.8493 62.4006 80.2813 60.6661 80.2813C58.9315 80.2813 57.3946 79.8493 56.0552 78.9854C54.7225 78.1148 53.6744 76.8892 52.9109 75.3087C52.1542 73.7215 51.7758 71.8564 51.7758 69.7134C51.7758 67.5703 52.1542 65.7085 52.9109 64.128C53.6744 62.5408 54.7258 61.3153 56.0652 60.4514C57.4046 59.5807 58.9382 59.1454 60.6661 59.1454C62.4006 59.1454 63.9342 59.5807 65.2669 60.4514C66.6063 61.3153 67.6578 62.5408 68.4212 64.128C69.1847 65.7085 69.5664 67.5703 69.5664 69.7134ZM67.7381 69.7134C67.7381 67.8717 67.4301 66.2945 66.814 64.9819C66.1978 63.6626 65.3573 62.6547 64.2925 61.9582C63.2277 61.2617 62.0189 60.9135 60.6661 60.9135C59.32 60.9135 58.1145 61.2617 57.0497 61.9582C55.9849 62.6547 55.141 63.6592 54.5182 64.9719C53.9021 66.2845 53.594 67.865 53.594 69.7134C53.594 71.555 53.9021 73.1322 54.5182 74.4448C55.1343 75.7574 55.9748 76.7653 57.0396 77.4685C58.1045 78.165 59.3133 78.5133 60.6661 78.5133C62.0189 78.5133 63.2277 78.165 64.2925 77.4685C65.364 76.772 66.2079 75.7675 66.824 74.4549C67.4401 73.1355 67.7448 71.555 67.7381 69.7134Z" fill="black"/>
</svg>
