<svg width="24" height="30" viewBox="0 0 24 30" fill="none" xmlns="http://www.w3.org/2000/svg">
<path d="M12 12.1875C12.5178 12.1875 12.9375 12.6072 12.9375 13.125V15.9375H15.75C16.2678 15.9375 16.6875 16.3572 16.6875 16.875C16.6875 17.3928 16.2678 17.8125 15.75 17.8125H12.9375V20.625C12.9375 21.1428 12.5178 21.5625 12 21.5625C11.4822 21.5625 11.0625 21.1428 11.0625 20.625V17.8125H8.25C7.73223 17.8125 7.3125 17.3928 7.3125 16.875C7.3125 16.3572 7.73223 15.9375 8.25 15.9375H11.0625V13.125C11.0625 12.6072 11.4822 12.1875 12 12.1875Z" fill="black"/>
<path d="M23.25 8.4375V26.25C23.25 28.3211 21.5711 30 19.5 30H4.5C2.42893 30 0.75 28.3211 0.75 26.25V3.75C0.75 1.67893 2.42893 0 4.5 0H14.8125L23.25 8.4375ZM17.625 8.4375C16.0717 8.4375 14.8125 7.1783 14.8125 5.625V1.875H4.5C3.46447 1.875 2.625 2.71447 2.625 3.75V26.25C2.625 27.2855 3.46447 28.125 4.5 28.125H19.5C20.5355 28.125 21.375 27.2855 21.375 26.25V8.4375H17.625Z" fill="black"/>
</svg>
