<svg width="25" height="26" viewBox="0 0 25 26" fill="none" xmlns="http://www.w3.org/2000/svg">
<path d="M9.26972 1.8486C11.0412 0.0322359 13.9588 0.0322362 15.7303 1.8486L16.7019 2.84487L18.0926 2.82829C20.628 2.79805 22.6911 4.86366 22.6609 7.40215L22.6443 8.7945L23.6394 9.76731C25.4535 11.5409 25.4535 14.4621 23.6394 16.2357L22.6443 17.2086L22.6609 18.6009C22.6911 21.1394 20.628 23.205 18.0926 23.1748L16.7019 23.1582L15.7303 24.1544C13.9588 25.9708 11.0412 25.9708 9.26972 24.1544L8.29809 23.1582L6.90743 23.1748C4.37201 23.205 2.30891 21.1394 2.33911 18.6009L2.35568 17.2086L1.36062 16.2357C-0.453541 14.4621 -0.453541 11.5409 1.36062 9.76731L2.35568 8.7945L2.33911 7.40215C2.30891 4.86366 4.37201 2.79805 6.90743 2.82829L8.29809 2.84487L9.26972 1.8486ZM10.94 17.6947C10.94 18.5587 11.6395 19.2591 12.5025 19.2591C13.3654 19.2591 14.065 18.5587 14.065 17.6947C14.065 16.8307 13.3654 16.1303 12.5025 16.1303C11.6395 16.1303 10.94 16.8307 10.94 17.6947ZM13.4437 14.5231C13.5056 13.689 13.7531 13.249 14.7664 12.5524C15.8184 11.8099 16.4062 10.8474 16.4062 9.44496C16.4062 7.37335 14.9675 5.96173 12.8713 5.96173C11.2778 5.96173 10.0712 6.73171 9.59158 7.97834C9.44462 8.32666 9.375 8.66582 9.375 9.05997C9.375 9.67412 9.69214 10.0591 10.2259 10.0591C10.6513 10.0591 10.9375 9.82995 11.1077 9.26163C11.3552 8.33583 11.9276 7.83167 12.7862 7.83167C13.7376 7.83167 14.3951 8.52832 14.3951 9.52746C14.3951 10.4074 14.0702 10.9116 13.1111 11.5991C12.1442 12.2774 11.6646 13.029 11.6646 14.1657V14.3398C11.6646 15.009 11.9895 15.504 12.5774 15.504C13.1033 15.504 13.3663 15.1281 13.4437 14.5231Z" fill="black"/>
</svg>
