<svg width="20" height="21" viewBox="0 0 20 21" fill="none" xmlns="http://www.w3.org/2000/svg">
<path d="M10 0.600098C11.3261 0.600098 12.5979 1.12688 13.5355 2.06456C14.4732 3.00225 15 4.27402 15 5.6001C15 6.92618 14.4732 8.19795 13.5355 9.13563C12.5979 10.0733 11.3261 10.6001 10 10.6001C8.67392 10.6001 7.40215 10.0733 6.46447 9.13563C5.52678 8.19795 5 6.92618 5 5.6001C5 4.27402 5.52678 3.00225 6.46447 2.06456C7.40215 1.12688 8.67392 0.600098 10 0.600098ZM10 13.1001C15.525 13.1001 20 15.3376 20 18.1001V20.6001H0V18.1001C0 15.3376 4.475 13.1001 10 13.1001Z" fill="black"/>
</svg>
