<svg width="80" height="81" viewBox="0 0 80 81" fill="000000" xmlns="http://www.w3.org/2000/svg">
<path d="M39.9998 0.0981445C45.3041 0.0981445 50.3912 2.20784 54.1419 5.96313C57.8926 9.71842 59.9998 14.8117 59.9998 20.1225C59.9998 25.4332 57.8926 30.5265 54.1419 34.2818C50.3912 38.0371 45.3041 40.1468 39.9998 40.1468C34.6954 40.1468 29.6083 38.0371 25.8576 34.2818C22.1069 30.5265 19.9998 25.4332 19.9998 20.1225C19.9998 14.8117 22.1069 9.71842 25.8576 5.96313C29.6083 2.20784 34.6954 0.0981445 39.9998 0.0981445ZM39.9998 50.1589C62.0998 50.1589 79.9998 59.1198 79.9998 70.1833V80.1954H-0.000244141V70.1833C-0.000244141 59.1198 17.8998 50.1589 39.9998 50.1589Z" fill="white"/>
</svg>
