<svg width="37" height="37" viewBox="0 0 37 37" fill="none" xmlns="http://www.w3.org/2000/svg">
<path fill-rule="evenodd" clip-rule="evenodd" d="M18.5 20.4583C23.9099 20.4583 28.2917 16.0766 28.2917 10.6667C28.2917 5.25677 23.9099 0.875 18.5 0.875C13.0901 0.875 8.70833 5.25677 8.70833 10.6667C8.70833 16.0766 13.0901 20.4583 18.5 20.4583ZM26.3333 10.6667C26.3333 14.9946 22.8279 18.5 18.5 18.5C14.1721 18.5 10.6667 14.9946 10.6667 10.6667C10.6667 6.33875 14.1721 2.83333 18.5 2.83333C22.8279 2.83333 26.3333 6.33875 26.3333 10.6667ZM23.4301 22.2933L20.4583 30.7827V30.25L19.8953 26.3128C20.075 26.2749 20.2405 26.1872 20.3728 26.0598C20.5051 25.9324 20.5988 25.7703 20.6434 25.5921L21.133 23.6338C21.1691 23.4895 21.1719 23.3388 21.1412 23.1933C21.1104 23.0478 21.0469 22.9111 20.9554 22.7938C20.8639 22.6765 20.747 22.5816 20.6133 22.5162C20.4797 22.4509 20.3329 22.4168 20.1842 22.4167H16.8178C16.6691 22.4167 16.5223 22.4506 16.3886 22.5159C16.255 22.5811 16.1379 22.6759 16.0464 22.7931C15.9548 22.9104 15.8912 23.0469 15.8603 23.1924C15.8294 23.3379 15.832 23.4885 15.868 23.6328L16.3576 25.5911C16.402 25.7695 16.4957 25.9318 16.628 26.0594C16.7603 26.187 16.9258 26.2748 17.1057 26.3128L16.5554 30.1629L13.565 22.2825L13.5454 22.2404C13.4009 21.9438 13.1595 21.7053 12.8611 21.5645C12.5627 21.4237 12.2252 21.3889 11.9043 21.4659C11.5704 21.5472 11.2023 21.6324 10.8135 21.7244C9.89606 21.9388 8.86108 22.1807 7.87996 22.4539C6.4964 22.8397 5.0629 23.3253 4.06708 23.9794C2.2331 25.1838 0.875 26.7769 0.875 28.7812V36.125H36.125V28.7812C36.125 26.7769 34.7679 25.1828 32.9329 23.9794C31.9381 23.3253 30.5046 22.8397 29.121 22.4539C28.1483 22.1906 27.1702 21.9474 26.1874 21.7244C25.8235 21.6399 25.4599 21.5537 25.0966 21.4659C24.7759 21.3889 24.4386 21.4238 24.1403 21.5646C23.8421 21.7054 23.6009 21.9439 23.4565 22.2404L23.4301 22.2933ZM25.7889 23.6426L25.0908 23.4781L21.3484 34.1667H34.1667V28.7812C34.1667 27.757 33.4773 26.679 31.8588 25.6166C31.1401 25.1436 29.969 24.7226 28.5962 24.3407C27.6657 24.0886 26.7291 23.8558 25.7889 23.6426ZM11.922 23.4751L15.9786 34.1667H2.83333V28.7812C2.83333 27.757 3.52267 26.679 5.14123 25.6166C5.85994 25.1436 7.03102 24.7226 8.40381 24.3407C9.33423 24.0883 10.2699 23.8555 11.2101 23.6426L11.922 23.4751Z" fill="white"/>
</svg>
