<svg width="30" height="23" viewBox="0 0 30 23" fill="none" xmlns="http://www.w3.org/2000/svg">
<path d="M27.1875 2.31283C27.7053 2.31283 28.125 2.73307 28.125 3.25147V20.147C28.125 20.6654 27.7053 21.0856 27.1875 21.0856H2.8125C2.29473 21.0856 1.875 20.6654 1.875 20.147V3.25147C1.875 2.73307 2.29473 2.31283 2.8125 2.31283H27.1875ZM2.8125 0.435547C1.2592 0.435547 0 1.69628 0 3.25147V20.147C0 21.7022 1.2592 22.9629 2.8125 22.9629H27.1875C28.7408 22.9629 30 21.7022 30 20.147V3.25147C30 1.69628 28.7408 0.435547 27.1875 0.435547H2.8125Z" fill="black"/>
<path d="M13.125 7.00603C13.125 6.48763 13.5447 6.06739 14.0625 6.06739H23.4375C23.9553 6.06739 24.375 6.48763 24.375 7.00603C24.375 7.52442 23.9553 7.94467 23.4375 7.94467H14.0625C13.5447 7.94467 13.125 7.52442 13.125 7.00603Z" fill="black"/>
<path d="M10.3192 5.40367C10.6853 5.77023 10.6853 6.36454 10.3192 6.7311L7.50667 9.54702C7.14055 9.91358 6.54696 9.91358 6.18084 9.54702L5.24334 8.60838C4.87722 8.24182 4.87722 7.64751 5.24334 7.28095C5.60946 6.91439 6.20305 6.91439 6.56917 7.28095L6.84375 7.55587L8.99334 5.40367C9.35946 5.03711 9.95305 5.03711 10.3192 5.40367Z" fill="black"/>
<path d="M13.125 14.5151C13.125 13.9967 13.5447 13.5765 14.0625 13.5765H23.4375C23.9553 13.5765 24.375 13.9967 24.375 14.5151C24.375 15.0335 23.9553 15.4538 23.4375 15.4538H14.0625C13.5447 15.4538 13.125 15.0335 13.125 14.5151Z" fill="black"/>
<path d="M10.3192 12.9128C10.6853 13.2793 10.6853 13.8737 10.3192 14.2402L7.50667 17.0561C7.14055 17.4227 6.54696 17.4227 6.18084 17.0561L5.24334 16.1175C4.87722 15.7509 4.87722 15.1566 5.24334 14.7901C5.60946 14.4235 6.20305 14.4235 6.56917 14.7901L6.84375 15.065L8.99334 12.9128C9.35946 12.5462 9.95305 12.5462 10.3192 12.9128Z" fill="black"/>
</svg>
