<svg width="37" height="45" viewBox="0 0 37 45" fill="none" xmlns="http://www.w3.org/2000/svg">
<path d="M18.0625 1.10743e-07C19.2872 -0.000249848 20.4744 0.422645 21.4231 1.19711C22.3718 1.97158 23.0238 3.05005 23.2687 4.25H29.75C31.4408 4.25 33.0623 4.92165 34.2578 6.11719C35.4534 7.31274 36.125 8.93425 36.125 10.625V38.25C36.125 39.9408 35.4534 41.5623 34.2578 42.7578C33.0623 43.9534 31.4408 44.625 29.75 44.625H6.375C4.68425 44.625 3.06274 43.9534 1.86719 42.7578C0.67165 41.5623 0 39.9408 0 38.25V10.625C0 8.93425 0.67165 7.31274 1.86719 6.11719C3.06274 4.92165 4.68425 4.25 6.375 4.25H12.8563C13.1012 3.05005 13.7532 1.97158 14.7019 1.19711C15.6506 0.422645 16.8378 -0.000249848 18.0625 1.10743e-07ZM21.0588 4.25C20.8402 3.62988 20.4346 3.09284 19.898 2.71296C19.3613 2.33308 18.72 2.12907 18.0625 2.12907C17.405 2.12907 16.7637 2.33308 16.227 2.71296C15.6904 3.09284 15.2848 3.62988 15.0662 4.25H21.0588ZM6.375 6.375C5.24783 6.375 4.16683 6.82277 3.3698 7.6198C2.57277 8.41683 2.125 9.49783 2.125 10.625V38.25C2.125 39.3772 2.57277 40.4582 3.3698 41.2552C4.16683 42.0522 5.24783 42.5 6.375 42.5H29.75C30.8772 42.5 31.9582 42.0522 32.7552 41.2552C33.5522 40.4582 34 39.3772 34 38.25V10.625C34 9.49783 33.5522 8.41683 32.7552 7.6198C31.9582 6.82277 30.8772 6.375 29.75 6.375H27.625V12.75H8.5V6.375H6.375ZM10.625 6.375V10.625H25.5V6.375H10.625Z" fill="white"/>
</svg>
