<svg width="36" height="31" viewBox="0 0 36 31" fill="none" xmlns="http://www.w3.org/2000/svg">
<path d="M25.0625 19.3646C23.7736 19.3646 22.675 18.9139 21.7667 18.0125C20.8597 17.1097 20.4062 16.0146 20.4062 14.7271C20.4062 13.4396 20.8569 12.3417 21.7583 11.4333C22.6611 10.525 23.7562 10.0708 25.0437 10.0708C26.3312 10.0708 27.4292 10.5222 28.3375 11.425C29.2458 12.325 29.7 13.4194 29.7 14.7083C29.7 15.9972 29.2486 17.0958 28.3458 18.0042C27.4458 18.9111 26.3514 19.3646 25.0625 19.3646ZM14.1562 30.2625V27.9083C14.1562 27.4542 14.2694 27.0215 14.4958 26.6104C14.7236 26.2007 15.0292 25.8715 15.4125 25.6229C16.8694 24.7924 18.3972 24.1563 19.9958 23.7146C21.5931 23.2729 23.2785 23.0521 25.0521 23.0521C26.8257 23.0521 28.5118 23.2729 30.1104 23.7146C31.709 24.1563 33.2368 24.7924 34.6937 25.6229C35.0771 25.8729 35.3826 26.2021 35.6104 26.6104C35.8368 27.0215 35.95 27.4535 35.95 27.9063V30.2625H14.1562ZM0.09375 19.125V17.0417H14.6771V19.125H0.09375ZM0.09375 2.45833V0.375H23.0104V2.45833H0.09375ZM16.3667 10.7917H0.09375V8.70833H17.5604C17.3146 9.03195 17.091 9.36042 16.8896 9.69375C16.6882 10.0271 16.5125 10.3931 16.3667 10.7917Z" fill="white"/>
</svg>
